<svg width="18" height="21" viewBox="0 0 18 21" fill="none" xmlns="http://www.w3.org/2000/svg">
<path d="M5 0.75C5 0.335786 5.33579 0 5.75 0H12.25C12.6642 0 13 0.335786 13 0.75C13 1.16421 12.6642 1.5 12.25 1.5H5.75C5.33579 1.5 5 1.16421 5 0.75Z" fill="#626777"/>
<path d="M7.25 8C6.83579 8 6.5 8.33579 6.5 8.75V15.25C6.5 15.6642 6.83579 16 7.25 16C7.66421 16 8 15.6642 8 15.25V8.75C8 8.33579 7.66421 8 7.25 8Z" fill="#626777"/>
<path d="M10 8.75C10 8.33579 10.3358 8 10.75 8C11.1642 8 11.5 8.33579 11.5 8.75V15.25C11.5 15.6642 11.1642 16 10.75 16C10.3358 16 10 15.6642 10 15.25V8.75Z" fill="#626777"/>
<path fill-rule="evenodd" clip-rule="evenodd" d="M0.75 3C0.335786 3 0 3.33579 0 3.75C0 4.16421 0.335787 4.5 0.75 4.5H2V17C2 19.2091 3.79086 21 6 21H12C14.2091 21 16 19.2091 16 17V4.5H17.25C17.6642 4.5 18 4.16421 18 3.75C18 3.33579 17.6642 3 17.25 3H0.75ZM12 19.5C13.3807 19.5 14.5 18.3807 14.5 17V4.5H3.5V17C3.5 18.3807 4.61929 19.5 6 19.5H12Z" fill="#626777"/>
</svg>
