<svg width="56" height="56" viewBox="0 0 56 56" fill="none" xmlns="http://www.w3.org/2000/svg">
<g opacity="0.5">
<path d="M16.4839 5.85156H13.2027C13.1104 5.85148 13.0191 5.86958 12.9339 5.90484C12.8486 5.9401 12.7712 5.99181 12.706 6.05704C12.6407 6.12226 12.589 6.1997 12.5538 6.28493C12.5185 6.37016 12.5004 6.46151 12.5005 6.55375V27.2365C12.5005 27.3287 12.5187 27.4199 12.554 27.5051C12.5893 27.5902 12.6411 27.6675 12.7063 27.7326C12.7715 27.7977 12.8489 27.8493 12.9341 27.8845C13.0193 27.9197 13.1105 27.9378 13.2027 27.9376H16.4839C16.3918 27.9378 16.3005 27.9197 16.2153 27.8845C16.1302 27.8493 16.0528 27.7977 15.9875 27.7326C15.9223 27.6675 15.8706 27.5902 15.8353 27.5051C15.8 27.4199 15.7818 27.3287 15.7817 27.2365V6.55375C15.7817 6.46151 15.7998 6.37016 15.835 6.28493C15.8703 6.1997 15.922 6.12226 15.9872 6.05704C16.0524 5.99181 16.1299 5.9401 16.2151 5.90484C16.3003 5.86958 16.3917 5.85148 16.4839 5.85156Z" fill="#5A00EE" fill-opacity="0.4"/>
<path d="M11.07 42.1626C10.6439 42.1621 10.2273 42.288 9.87289 42.5244C9.51843 42.7607 9.24204 43.0969 9.07868 43.4903C8.91532 43.8838 8.87233 44.3168 8.95515 44.7347C9.03797 45.1526 9.24288 45.5366 9.54395 45.838C9.84503 46.1394 10.2287 46.3447 10.6465 46.428C11.0643 46.5113 11.4975 46.4688 11.8911 46.3059C12.2847 46.143 12.6212 45.8669 12.8579 45.5127C13.0947 45.1586 13.221 44.7421 13.221 44.3161C13.2207 43.7455 12.9941 43.1983 12.5908 42.7945C12.1875 42.3908 11.6406 42.1636 11.07 42.1626ZM11.07 45.1571C10.9035 45.1575 10.7407 45.1086 10.6021 45.0165C10.4635 44.9244 10.3553 44.7932 10.2913 44.6396C10.2272 44.486 10.2103 44.3168 10.2424 44.1535C10.2746 43.9902 10.3545 43.8401 10.472 43.7223C10.5895 43.6044 10.7394 43.5241 10.9026 43.4914C11.0658 43.4588 11.235 43.4753 11.3888 43.5389C11.5426 43.6025 11.6741 43.7103 11.7666 43.8486C11.8591 43.987 11.9085 44.1496 11.9085 44.3161C11.9086 44.5387 11.8203 44.7523 11.6631 44.91C11.5059 45.0676 11.2926 45.1565 11.07 45.1571Z" fill="#5A00EE"/>
<path d="M15.4314 42.875C15.1391 42.8748 14.8533 42.9613 14.6101 43.1235C14.367 43.2857 14.1774 43.5165 14.0654 43.7864C13.9534 44.0564 13.924 44.3536 13.9809 44.6403C14.0378 44.927 14.1785 45.1904 14.3851 45.3972C14.5917 45.6039 14.855 45.7448 15.1417 45.8018C15.4284 45.8589 15.7255 45.8297 15.9956 45.7179C16.2657 45.6061 16.4965 45.4167 16.6589 45.1736C16.8213 44.9306 16.908 44.6448 16.9079 44.3525C16.9077 43.9609 16.7521 43.5854 16.4752 43.3084C16.1984 43.0314 15.823 42.8755 15.4314 42.875ZM15.4314 44.5177C15.3987 44.5179 15.3666 44.5084 15.3393 44.4904C15.312 44.4724 15.2907 44.4467 15.278 44.4165C15.2654 44.3863 15.2619 44.3531 15.2682 44.321C15.2744 44.2889 15.2901 44.2594 15.3131 44.2362C15.3362 44.2129 15.3656 44.1971 15.3977 44.1906C15.4297 44.1842 15.463 44.1874 15.4932 44.1999C15.5235 44.2123 15.5493 44.2335 15.5675 44.2607C15.5857 44.2879 15.5954 44.3198 15.5954 44.3525C15.5954 44.3961 15.5781 44.4379 15.5474 44.4687C15.5166 44.4996 15.4749 44.517 15.4314 44.5172V44.5177Z" fill="#5A00EE"/>
<path d="M11.0701 47.5571C10.896 47.5571 10.7291 47.6263 10.606 47.7493C10.483 47.8724 10.4138 48.0393 10.4138 48.2134V52.0012C10.4138 52.1752 10.483 52.3421 10.606 52.4652C10.7291 52.5883 10.896 52.6574 11.0701 52.6574C11.2441 52.6574 11.411 52.5883 11.5341 52.4652C11.6572 52.3421 11.7263 52.1752 11.7263 52.0012V48.2134C11.7263 48.0393 11.6572 47.8724 11.5341 47.7493C11.411 47.6263 11.2441 47.5571 11.0701 47.5571Z" fill="#5A00EE"/>
<path d="M13.2617 47.5571C13.0877 47.5571 12.9208 47.6263 12.7977 47.7493C12.6746 47.8724 12.6055 48.0393 12.6055 48.2134V52.0012C12.6055 52.1752 12.6746 52.3421 12.7977 52.4652C12.9208 52.5883 13.0877 52.6574 13.2617 52.6574C13.4358 52.6574 13.6027 52.5883 13.7258 52.4652C13.8488 52.3421 13.918 52.1752 13.918 52.0012V48.2134C13.918 48.0393 13.8488 47.8724 13.7258 47.7493C13.6027 47.6263 13.4358 47.5571 13.2617 47.5571Z" fill="#5A00EE"/>
<path d="M15.6726 47.5571C15.4986 47.5571 15.3316 47.6263 15.2086 47.7493C15.0855 47.8724 15.0164 48.0393 15.0164 48.2134V52.0012C15.0164 52.1752 15.0855 52.3421 15.2086 52.4652C15.3316 52.5883 15.4986 52.6574 15.6726 52.6574C15.8467 52.6574 16.0136 52.5883 16.1366 52.4652C16.2597 52.3421 16.3289 52.1752 16.3289 52.0012V48.2134C16.3289 48.0393 16.2597 47.8724 16.1366 47.7493C16.0136 47.6263 15.8467 47.5571 15.6726 47.5571Z" fill="#5A00EE"/>
<path d="M33.4153 51.8717C33.5893 51.8717 33.7563 51.8026 33.8793 51.6795C34.0024 51.5565 34.0715 51.3895 34.0715 51.2155V44.0864C34.0715 43.9124 34.0024 43.7455 33.8793 43.6224C33.7563 43.4993 33.5893 43.4302 33.4153 43.4302C33.2412 43.4302 33.0743 43.4993 32.9512 43.6224C32.8282 43.7455 32.759 43.9124 32.759 44.0864V51.2155C32.759 51.3895 32.8282 51.5565 32.9512 51.6795C33.0743 51.8026 33.2412 51.8717 33.4153 51.8717Z" fill="#5A00EE"/>
<path d="M36.6606 51.8717C36.8347 51.8717 37.0016 51.8026 37.1247 51.6795C37.2478 51.5565 37.3169 51.3895 37.3169 51.2155V44.0864C37.3169 43.9124 37.2478 43.7455 37.1247 43.6224C37.0016 43.4993 36.8347 43.4302 36.6606 43.4302C36.4866 43.4302 36.3197 43.4993 36.1966 43.6224C36.0735 43.7455 36.0044 43.9124 36.0044 44.0864V51.2155C36.0044 51.3895 36.0735 51.5565 36.1966 51.6795C36.3197 51.8026 36.4866 51.8717 36.6606 51.8717Z" fill="#5A00EE"/>
<path d="M39.7153 51.8717C39.8894 51.8717 40.0563 51.8026 40.1794 51.6795C40.3024 51.5565 40.3716 51.3895 40.3716 51.2155V44.0864C40.3716 43.9124 40.3024 43.7455 40.1794 43.6224C40.0563 43.4993 39.8894 43.4302 39.7153 43.4302C39.5413 43.4302 39.3744 43.4993 39.2513 43.6224C39.1282 43.7455 39.0591 43.9124 39.0591 44.0864V51.2155C39.0591 51.3895 39.1282 51.5565 39.2513 51.6795C39.3744 51.8026 39.5413 51.8717 39.7153 51.8717Z" fill="#5A00EE"/>
<path d="M42.9604 51.8717C43.1345 51.8717 43.3014 51.8026 43.4245 51.6795C43.5476 51.5565 43.6167 51.3895 43.6167 51.2155V44.0864C43.6167 43.9124 43.5476 43.7455 43.4245 43.6224C43.3014 43.4993 43.1345 43.4302 42.9604 43.4302C42.7864 43.4302 42.6195 43.4993 42.4964 43.6224C42.3733 43.7455 42.3042 43.9124 42.3042 44.0864V51.2155C42.3042 51.3895 42.3733 51.5565 42.4964 51.6795C42.6195 51.8026 42.7864 51.8717 42.9604 51.8717Z" fill="#5A00EE"/>
<path d="M45.7056 1.09375H10.2941C9.56335 1.09459 8.86277 1.38525 8.34606 1.90196C7.82934 2.41868 7.53868 3.11925 7.53784 3.85V31.1876C7.53868 31.9184 7.82934 32.6189 8.34606 33.1357C8.86277 33.6524 9.56335 33.943 10.2941 33.9439H19.2613L17.7896 36.3896H14.4427C13.9207 36.3902 13.4203 36.5978 13.0512 36.9669C12.6822 37.336 12.4745 37.8364 12.4739 38.3584V40.4231H13.7864V38.3584C13.7866 38.1844 13.8558 38.0176 13.9789 37.8945C14.1019 37.7715 14.2687 37.7023 14.4427 37.7021H41.5567C41.7307 37.7023 41.8975 37.7715 42.0206 37.8945C42.1436 38.0176 42.2128 38.1844 42.213 38.3584V40.4231H43.5255V38.3584C43.5249 37.8364 43.3173 37.336 42.9482 36.9669C42.5791 36.5978 42.0787 36.3902 41.5567 36.3896H38.2099L36.7389 33.9439H45.7061C46.4369 33.943 47.1374 33.6524 47.6541 33.1357C48.1709 32.6189 48.4615 31.9184 48.4624 31.1876V3.85C48.4615 3.11916 48.1708 2.4185 47.6539 1.90177C47.1371 1.38504 46.4364 1.09444 45.7056 1.09375ZM36.6782 36.3896H19.3215L20.7932 33.9439H35.2064L36.6782 36.3896ZM47.1493 31.1876C47.1488 31.5704 46.9966 31.9373 46.7259 32.208C46.4553 32.4787 46.0883 32.6309 45.7056 32.6314H10.2941C9.91133 32.6309 9.54437 32.4787 9.27372 32.208C9.00306 31.9373 8.8508 31.5704 8.85034 31.1876V3.85C8.8508 3.46724 9.00306 3.10028 9.27372 2.82963C9.54437 2.55897 9.91133 2.40671 10.2941 2.40625H45.7056C46.0883 2.40671 46.4553 2.55897 46.7259 2.82963C46.9966 3.10028 47.1488 3.46724 47.1493 3.85V31.1876Z" fill="#5A00EE"/>
<path d="M42.7976 5.19531H13.2022C12.8422 5.19569 12.497 5.33888 12.2424 5.59348C11.9878 5.84807 11.8446 6.19326 11.8442 6.55331V27.2361C11.8446 27.5962 11.9879 27.9413 12.2424 28.1959C12.497 28.4505 12.8422 28.5936 13.2022 28.594H42.7976C43.1576 28.5936 43.5028 28.4505 43.7574 28.1959C44.012 27.9413 44.1552 27.5962 44.1556 27.2361V6.55353C44.1553 6.19344 44.0121 5.84819 43.7575 5.59355C43.5029 5.33891 43.1577 5.19569 42.7976 5.19531ZM42.8431 27.2359C42.8431 27.248 42.8382 27.2595 42.8297 27.268C42.8212 27.2765 42.8096 27.2813 42.7976 27.2813H13.2022C13.1902 27.2813 13.1786 27.2765 13.1701 27.268C13.1616 27.2595 13.1568 27.248 13.1567 27.2359V6.55353C13.1567 6.54146 13.1615 6.52989 13.1701 6.52136C13.1786 6.51283 13.1902 6.50803 13.2022 6.50803H42.7976C42.8096 6.50803 42.8212 6.51283 42.8297 6.52136C42.8383 6.52989 42.8431 6.54146 42.8431 6.55353V27.2359Z" fill="#5A00EE"/>
<path d="M40.5136 30.2725C40.3425 30.2724 40.1751 30.323 40.0327 30.418C39.8903 30.5131 39.7793 30.6482 39.7137 30.8063C39.6482 30.9644 39.6309 31.1384 39.6643 31.3063C39.6976 31.4742 39.78 31.6285 39.901 31.7496C40.022 31.8706 40.1762 31.9531 40.3441 31.9866C40.5119 32.02 40.686 32.0029 40.8441 31.9374C41.0023 31.8719 41.1375 31.761 41.2326 31.6187C41.3277 31.4764 41.3785 31.309 41.3785 31.1378C41.3783 30.9085 41.2871 30.6886 41.125 30.5263C40.9628 30.3641 40.743 30.2728 40.5136 30.2725Z" fill="#5A00EE"/>
<path d="M37.2258 30.2725C37.0546 30.2724 36.8872 30.323 36.7449 30.418C36.6025 30.5131 36.4915 30.6482 36.4259 30.8063C36.3603 30.9644 36.3431 31.1384 36.3764 31.3063C36.4098 31.4742 36.4921 31.6285 36.6131 31.7496C36.7341 31.8706 36.8883 31.9531 37.0562 31.9866C37.2241 32.02 37.3981 32.0029 37.5563 31.9374C37.7144 31.8719 37.8496 31.761 37.9447 31.6187C38.0398 31.4764 38.0906 31.309 38.0906 31.1378C38.0904 30.9085 37.9993 30.6885 37.8372 30.5263C37.675 30.3641 37.4551 30.2728 37.2258 30.2725Z" fill="#5A00EE"/>
<path d="M16.0319 13.1797L18.2358 11.1453C18.2991 11.0869 18.3503 11.0165 18.3864 10.9383C18.4226 10.86 18.4429 10.7755 18.4464 10.6893C18.4498 10.6032 18.4363 10.5173 18.4065 10.4364C18.3768 10.3555 18.3314 10.2813 18.2729 10.218C18.2145 10.1547 18.1441 10.1035 18.0659 10.0673C17.9876 10.0312 17.903 10.0108 17.8169 10.0074C17.7308 10.0039 17.6449 10.0175 17.564 10.0472C17.4831 10.077 17.4089 10.1224 17.3456 10.1809L15.1416 12.2152C15.0137 12.3333 14.9379 12.4973 14.9309 12.6712C14.924 12.8452 14.9864 13.0147 15.1045 13.1426C15.2225 13.2705 15.3866 13.3463 15.5605 13.3532C15.7344 13.3602 15.904 13.2978 16.0319 13.1797Z" fill="#5A00EE"/>
<path d="M21.6029 9.49845L15.3617 15.4318C15.2355 15.5518 15.1621 15.7169 15.1577 15.8909C15.1533 16.065 15.2182 16.2336 15.3381 16.3598C15.458 16.486 15.6232 16.5594 15.7972 16.5638C15.9712 16.5682 16.1399 16.5033 16.2661 16.3834L22.5072 10.45C22.6334 10.3301 22.7068 10.165 22.7112 9.99094C22.7157 9.81692 22.6508 9.64826 22.5309 9.52208C22.4109 9.39589 22.2458 9.32251 22.0718 9.31808C21.8978 9.31365 21.7291 9.37853 21.6029 9.49845Z" fill="#5A00EE"/>
<path d="M49.5599 39.7671H6.43994C6.14996 39.7674 5.87194 39.8827 5.6669 40.0878C5.46185 40.2928 5.34651 40.5709 5.34619 40.8608V53.8127C5.34651 54.1027 5.46185 54.3807 5.6669 54.5857C5.87194 54.7908 6.14996 54.9061 6.43994 54.9064H49.5599C49.8499 54.9061 50.1279 54.7908 50.333 54.5857C50.538 54.3807 50.6534 54.1027 50.6537 53.8127V40.8608C50.6534 40.5709 50.538 40.2928 50.333 40.0878C50.1279 39.8827 49.8499 39.7674 49.5599 39.7671ZM24.5622 41.0796H27.1106V53.5939H24.5622V41.0796ZM23.2497 53.5939H20.5315V41.0796H23.2497V53.5939ZM6.65869 41.0796H19.219V53.5939H6.65869V41.0796ZM49.3412 53.5939H28.4234V41.0796H49.3412V53.5939Z" fill="#5A00EE"/>
</g>
</svg>
