<svg width="20" height="20" viewBox="0 0 20 20" fill="none" xmlns="http://www.w3.org/2000/svg">
<path d="M9.25001 0.75C9.25001 0.335786 9.5858 0 10 0C10.4142 0 10.75 0.335786 10.75 0.75V12.2249L13.0052 9.96967C13.2981 9.67677 13.773 9.67677 14.0659 9.96967C14.3588 10.2626 14.3588 10.7374 14.0659 11.0303L10.5303 14.5659C10.2374 14.8588 9.76258 14.8588 9.46968 14.5659L5.93415 11.0303C5.64125 10.7374 5.64125 10.2626 5.93415 9.96967C6.22704 9.67677 6.70191 9.67677 6.99481 9.96967L9.25001 12.2249V0.75Z" fill="black"/>
<path d="M1.39535 11.7105C1.39535 11.3181 1.08299 11 0.697674 11C0.312359 11 0 11.3181 0 11.7105V15.5C0 17.9853 1.97828 20 4.4186 20H15.5814C18.0217 20 20 17.9853 20 15.5V11.7105C20 11.3181 19.6876 11 19.3023 11C18.917 11 18.6047 11.3181 18.6047 11.7105V15.5C18.6047 17.2005 17.2511 18.5789 15.5814 18.5789H4.4186C2.74891 18.5789 1.39535 17.2005 1.39535 15.5V11.7105Z" fill="black"/>
</svg>
