<svg width="56" height="56" viewBox="0 0 56 56" fill="none" xmlns="http://www.w3.org/2000/svg">
<g opacity="0.5">
<path d="M5.7837 39.64H7.5862C7.65149 39.6396 7.7164 39.63 7.77903 39.6116C7.67046 39.5806 7.57099 39.5239 7.4891 39.4462C7.4072 39.3685 7.34532 39.2721 7.30872 39.1653L6.46959 36.688H8.07183C7.88514 36.6879 7.70022 36.6518 7.52714 36.5819C7.26299 36.4736 7.03699 36.2893 6.87788 36.0522C6.71877 35.8152 6.63372 35.5363 6.63354 35.2508V13.5158C6.63352 13.4557 6.64532 13.3963 6.66829 13.3408C6.69125 13.2853 6.72493 13.2349 6.76739 13.1924C6.80985 13.15 6.86026 13.1163 6.91574 13.0933C6.97122 13.0704 7.03069 13.0586 7.09073 13.0586H3.80948C3.74944 13.0586 3.68997 13.0704 3.63449 13.0933C3.57901 13.1163 3.5286 13.15 3.48614 13.1924C3.44368 13.2349 3.41 13.2853 3.38704 13.3408C3.36407 13.3963 3.35227 13.4557 3.35229 13.5158V35.2508C3.35247 35.5363 3.43752 35.8152 3.59663 36.0522C3.75574 36.2893 3.98174 36.4736 4.24589 36.5819L5.12089 39.1653C5.16804 39.3037 5.25729 39.4239 5.37615 39.509C5.495 39.5941 5.63751 39.6399 5.7837 39.64Z" fill="#5A00EE" fill-opacity="0.4"/>
<path d="M4.90623 9.14667L5.73956 9.75425C5.82497 9.81681 5.89446 9.8986 5.9424 9.993C5.99034 10.0874 6.01539 10.1918 6.01551 10.2976V13.058C6.01551 13.2321 6.08465 13.399 6.20772 13.5221C6.33079 13.6451 6.49771 13.7143 6.67176 13.7143C6.84581 13.7143 7.01273 13.6451 7.1358 13.5221C7.25887 13.399 7.32801 13.2321 7.32801 13.058V11.5297L31.1034 11.789V14.0169H30.8698C30.6957 14.0169 30.5288 14.0861 30.4057 14.2091C30.2827 14.3322 30.2135 14.4991 30.2135 14.6732C30.2135 14.8472 30.2827 15.0141 30.4057 15.1372C30.5288 15.2603 30.6957 15.3294 30.8698 15.3294H32.6246V16.4173H33.9371V15.3295H35.4555C35.6296 15.3295 35.7965 15.2604 35.9196 15.1373C36.0426 15.0142 36.1118 14.8473 36.1118 14.6733C36.1118 14.4992 36.0426 14.3323 35.9196 14.2092C35.7965 14.0862 35.6296 14.017 35.4555 14.017H35.4118V9.55453H35.4555C35.6296 9.55453 35.7965 9.48539 35.9196 9.36232C36.0426 9.23925 36.1118 9.07233 36.1118 8.89828C36.1118 8.72423 36.0426 8.55731 35.9196 8.43424C35.7965 8.31117 35.6296 8.24203 35.4555 8.24203H34.8706V7.23983C34.8704 7.03591 34.7893 6.84042 34.6451 6.69623C34.5009 6.55204 34.3054 6.47093 34.1015 6.4707H32.4624C32.2585 6.47093 32.063 6.55204 31.9188 6.69623C31.7746 6.84042 31.6935 7.03591 31.6933 7.23983V8.24192H30.8699C30.6958 8.24192 30.5289 8.31106 30.4058 8.43413C30.2828 8.5572 30.2136 8.72412 30.2136 8.89817C30.2136 9.07222 30.2828 9.23914 30.4058 9.36221C30.5289 9.48528 30.6958 9.55442 30.8699 9.55442H31.1035V10.4765L7.32539 10.2171C7.31288 9.91847 7.23331 9.62646 7.09258 9.36275C6.95184 9.09904 6.75355 8.87039 6.5124 8.69375L5.67962 8.08617C5.60996 8.03539 5.53098 7.99883 5.44719 7.97857C5.36339 7.95831 5.27643 7.95476 5.19126 7.96811C5.1061 7.98146 5.02439 8.01145 4.95082 8.05638C4.87725 8.10131 4.81324 8.16028 4.76246 8.22995C4.71168 8.29961 4.67511 8.37859 4.65486 8.46238C4.6346 8.54618 4.63104 8.63314 4.64439 8.7183C4.67136 8.89031 4.76554 9.04455 4.90623 9.14711V9.14667ZM33.006 7.7832H33.5584V8.24192H33.006V7.7832ZM34.0997 9.55442V14.0169H32.4162V9.55442H34.0997Z" fill="#5A00EE"/>
<path d="M52.8491 18.3785H52.2157V17.9792C52.2157 17.5122 52.0302 17.0643 51.6999 16.734C51.3697 16.4038 50.9218 16.2183 50.4548 16.2183C49.9877 16.2183 49.5398 16.4038 49.2096 16.734C48.8794 17.0643 48.6938 17.5122 48.6938 17.9792V18.2605L45.6272 21.8403C44.3674 18.1486 41.0829 15.5094 37.2392 15.5094C37.1096 15.5094 36.6908 15.5369 35.6713 15.6045C32.5698 15.8101 25.3061 16.2919 21.1645 16.1932C17.9421 16.1167 14.9732 15.701 12.2084 15.2821C11.785 15.22 11.3982 15.0071 11.1193 14.6826C10.8404 14.358 10.688 13.9437 10.6903 13.5157C10.6898 13.2204 10.5722 12.9372 10.3633 12.7284C10.1544 12.5196 9.87124 12.4022 9.57587 12.4019H3.81005C3.5148 12.4023 3.23178 12.5199 3.02301 12.7287C2.81424 12.9374 2.69675 13.2205 2.69629 13.5157V35.2505C2.69677 35.6107 2.79021 35.9647 2.96756 36.2782C3.14492 36.5917 3.40018 36.8541 3.70866 37.04L4.49977 39.3752C4.5906 39.6437 4.76337 39.877 4.99376 40.0422C5.22415 40.2074 5.50055 40.2962 5.78405 40.2961H6.02665V44.1883C6.02665 44.3624 6.09579 44.5293 6.21886 44.6524C6.34193 44.7754 6.50885 44.8446 6.6829 44.8446C6.85695 44.8446 7.02387 44.7754 7.14694 44.6524C7.27001 44.5293 7.33915 44.3624 7.33915 44.1883V40.2961H7.58634C7.86723 40.2958 8.14113 40.2085 8.37032 40.0461C8.5995 39.8837 8.77269 39.6542 8.86602 39.3893L8.91721 39.2434H9.88299C9.93008 39.3929 10.0292 39.5207 10.1623 39.6035C10.2954 39.6863 10.4538 39.7187 10.6088 39.6949C10.7638 39.671 10.9051 39.5924 11.0071 39.4734C11.1092 39.3544 11.1653 39.2027 11.1652 39.0459V38.1686C11.1649 38.0158 11.1112 37.8679 11.0134 37.7504C10.9156 37.6329 10.7799 37.5532 10.6297 37.5251C10.4794 37.4969 10.3241 37.5221 10.1904 37.5963C10.0568 37.6705 9.95325 37.789 9.89765 37.9314H9.3779L9.58385 37.3446C9.87771 37.3422 10.1587 37.2239 10.3658 37.0154C10.5729 36.8069 10.6893 36.525 10.6896 36.2312V29.5727C10.6902 29.1175 10.8643 28.6795 11.1764 28.3481C11.4886 28.0166 11.9153 27.8166 12.3697 27.7887C15.1221 27.6232 18.0443 27.5281 21.3035 27.498C22.9625 27.4826 24.6475 27.4929 26.3111 27.5283C26.9379 27.5401 27.5374 27.7865 27.9913 28.2188C28.4453 28.651 28.7206 29.2378 28.763 29.8632C28.8474 31.0192 28.8903 32.2527 28.8903 33.5293V46.3105H30.2028V33.5293C30.2028 32.2208 30.159 30.9552 30.0715 29.7677C30.0065 28.816 29.587 27.9232 28.8959 27.2657C28.2048 26.6082 27.2923 26.2336 26.3386 26.216C24.6615 26.1804 22.9635 26.1702 21.2909 26.1855C18.0097 26.2159 15.0652 26.3117 12.2904 26.4786C11.5023 26.527 10.7622 26.8739 10.2209 27.4488C9.67959 28.0236 9.37769 28.7831 9.37669 29.5727V33.2368H4.00879V13.7144H9.38337C9.42496 14.4213 9.70901 15.0924 10.1876 15.6144C10.6663 16.1364 11.3102 16.4774 12.011 16.58C14.8176 17.0055 17.8336 17.4274 21.1329 17.5056C25.3329 17.6054 32.6385 17.1212 35.7577 16.9143C36.4984 16.8652 37.1383 16.8228 37.2388 16.8221C41.4434 16.8221 44.8642 20.5722 44.8642 25.1817C44.8642 25.5673 44.8401 25.9526 44.7921 26.3352C44.5394 28.4424 44.4195 30.5634 44.433 32.6856V46.3105H45.7455V32.6853C45.7455 31.6339 45.7697 30.6409 45.8179 29.694L48.6934 33.8065V34.0902C48.6934 34.5572 48.8789 35.0051 49.2092 35.3353C49.5394 35.6656 49.9873 35.8511 50.4543 35.8511C50.9214 35.8511 51.3693 35.6656 51.6995 35.3353C52.0297 35.0051 52.2153 34.5572 52.2153 34.0902V21.758H52.8488C53.2969 21.758 53.7268 21.58 54.0437 21.2631C54.3606 20.9462 54.5386 20.5163 54.5386 20.0682C54.5386 19.62 54.3606 19.1902 54.0437 18.8733C53.7268 18.5564 53.2969 18.3783 52.8488 18.3783L52.8491 18.3785ZM7.58634 38.9836H5.78405C5.77498 38.9835 5.76615 38.9807 5.75879 38.9754C5.75142 38.9701 5.74588 38.9626 5.74293 38.9541L5.19759 37.3445H8.19227L7.62702 38.9544C7.62405 38.9628 7.61855 38.9702 7.61127 38.9754C7.604 38.9806 7.59529 38.9835 7.58634 38.9836ZM9.37713 34.5493V36.032H4.79071C4.5835 36.0318 4.38483 35.9494 4.2383 35.8029C4.09177 35.6564 4.00935 35.4577 4.00912 35.2505V34.5493H9.37713ZM48.6932 20.2783V24.874H46.1714C46.1571 24.3782 46.1075 23.8841 46.023 23.3954L48.6932 20.2783ZM45.9697 27.6212C46.0067 27.2405 46.0483 26.8666 46.0944 26.4994C46.1074 26.3956 46.1189 26.2913 46.1288 26.1865H48.6934V31.5166L45.9697 27.6212ZM50.9032 34.0902C50.9031 34.209 50.8558 34.323 50.7717 34.4071C50.6876 34.4912 50.5737 34.5384 50.4548 34.5386C50.3359 34.5384 50.2219 34.4911 50.1379 34.4071C50.0538 34.323 50.0065 34.209 50.0063 34.0902V17.9792C50.0063 17.8603 50.0536 17.7462 50.1377 17.6621C50.2218 17.578 50.3358 17.5308 50.4548 17.5308C50.5737 17.5308 50.6878 17.578 50.7719 17.6621C50.856 17.7462 50.9032 17.8603 50.9032 17.9792V34.0902ZM52.8492 20.4455H52.2157V19.6908H52.8492C52.9493 19.6908 53.0453 19.7306 53.116 19.8013C53.1868 19.8721 53.2266 19.9681 53.2266 20.0682C53.2266 20.1682 53.1868 20.2642 53.116 20.335C53.0453 20.4058 52.9493 20.4455 52.8492 20.4455Z" fill="#5A00EE"/>
<path d="M37.0252 34.4345C36.9243 33.9622 36.7095 33.5216 36.3993 33.1513C35.6403 32.2607 34.2093 31.8988 33.1412 32.3278C32.7706 32.4814 32.444 32.7246 32.1908 33.0357C31.9375 33.3467 31.7655 33.7158 31.6902 34.1098C31.62 34.4943 31.6375 34.8898 31.7414 35.2667C31.8453 35.6435 32.0329 35.9921 32.2902 36.2863C32.5999 36.6528 33.0197 36.9093 33.4871 37.0176C33.5715 37.0353 33.6585 37.0363 33.7432 37.0204C33.8279 37.0045 33.9086 36.972 33.9808 36.9249C34.0529 36.8778 34.1151 36.8169 34.1638 36.7458C34.2124 36.6747 34.2466 36.5946 34.2643 36.5103C34.282 36.4259 34.2829 36.3389 34.267 36.2542C34.2511 36.1695 34.2187 36.0888 34.1716 36.0166C34.1245 35.9445 34.0636 35.8823 33.9924 35.8336C33.9213 35.785 33.8413 35.7508 33.7569 35.7331C33.5691 35.6837 33.4019 35.5755 33.2798 35.4244C33.1539 35.2799 33.0615 35.1093 33.0095 34.9249C32.9575 34.7404 32.9472 34.5467 32.9792 34.3577C33.0145 34.1801 33.0921 34.0136 33.2054 33.8723C33.3187 33.731 33.4644 33.6192 33.6302 33.5462C34.169 33.3299 35.0123 33.5476 35.4003 34.0029C36.1626 34.8976 35.6917 36.6124 35.4294 37.3658C34.9217 38.1988 34.5641 39.1144 34.3729 40.071C34.012 41.9345 34.2695 43.5025 35.1397 44.7316C36.4593 46.5952 38.6985 46.9461 38.7933 46.9601L38.9878 45.6622C38.97 45.6593 37.1915 45.3686 36.2039 43.9632C35.9651 43.6208 35.7883 43.2393 35.6814 42.8358C35.6364 42.1796 35.6058 40.3038 36.6273 39.6045C37.1204 39.2669 37.9914 39.2782 38.4548 39.6281C38.5959 39.742 38.7074 39.8883 38.7799 40.0545C38.8525 40.2207 38.884 40.4019 38.8716 40.5828C38.8533 40.7734 38.7929 40.9575 38.6946 41.1218C38.5964 41.2861 38.4628 41.4265 38.3035 41.5328C38.1463 41.6463 37.957 41.7069 37.763 41.7058C37.6765 41.6999 37.5897 41.7112 37.5076 41.739C37.4254 41.7669 37.3497 41.8107 37.2846 41.8681C37.2195 41.9254 37.1665 41.995 37.1285 42.073C37.0905 42.1509 37.0683 42.2356 37.0632 42.3222C37.0582 42.4088 37.0703 42.4955 37.099 42.5773C37.1276 42.6592 37.1722 42.7345 37.2302 42.799C37.2881 42.8636 37.3583 42.9159 37.4366 42.9532C37.5149 42.9904 37.5998 43.0118 37.6865 43.016C38.166 43.0344 38.6385 42.8968 39.0332 42.6239C39.3584 42.4072 39.6306 42.1199 39.8292 41.7833C40.0279 41.4468 40.148 41.0697 40.1805 40.6803C40.2108 40.2802 40.1412 39.8789 39.978 39.5124C39.8149 39.1458 39.5633 38.8256 39.2458 38.5803C38.4899 38.0094 37.3578 37.8912 36.4423 38.2352C36.6347 37.8914 36.844 37.5646 37.058 37.2312C38.1493 35.5309 39.2746 33.775 37.9499 29.5435C39.1525 29.319 40.2253 28.647 40.9521 27.663C41.6789 26.679 42.0057 25.456 41.8666 24.2406C41.7275 23.0252 41.1329 21.9077 40.2026 21.1133C39.2723 20.3189 38.0755 19.9066 36.8533 19.9596C35.6311 20.0126 34.4744 20.5269 33.6163 21.3988C32.7583 22.2708 32.2626 23.4356 32.2293 24.6585C32.1959 25.8813 32.6273 27.0714 33.4365 27.9889C34.2458 28.9063 35.3727 29.4829 36.5902 29.6024C37.357 31.8879 37.3625 33.3159 37.0252 34.4345ZM33.5399 24.7893C33.5397 24.092 33.7463 23.4103 34.1336 22.8304C34.5208 22.2505 35.0714 21.7985 35.7155 21.5316C36.3597 21.2646 37.0686 21.1946 37.7525 21.3305C38.4364 21.4665 39.0647 21.8021 39.5578 22.2951C40.0509 22.7881 40.3868 23.4163 40.5229 24.1002C40.659 24.7841 40.5892 25.4929 40.3224 26.1372C40.0556 26.7814 39.6038 27.3321 39.024 27.7195C38.4442 28.1069 37.7626 28.3137 37.0653 28.3137C36.1308 28.3127 35.2348 27.9412 34.5739 27.2804C33.913 26.6197 33.5411 25.7238 33.5399 24.7893Z" fill="#5A00EE"/>
<path d="M39.6267 24.7243C39.6268 24.2162 39.4762 23.7194 39.194 23.2969C38.9117 22.8743 38.5105 22.545 38.0411 22.3505C37.5716 22.1559 37.055 22.105 36.5567 22.2041C36.0583 22.3032 35.6005 22.5479 35.2411 22.9071C34.8818 23.2664 34.6371 23.7242 34.5379 24.2226C34.4388 24.721 34.4896 25.2376 34.6841 25.707C34.8785 26.1765 35.2078 26.5777 35.6304 26.86C36.0529 27.1423 36.5496 27.293 37.0577 27.293C37.7388 27.2923 38.3918 27.0214 38.8734 26.5399C39.355 26.0583 39.6259 25.4054 39.6267 24.7243ZM37.0577 25.9805C36.8093 25.9804 36.5665 25.9067 36.3599 25.7686C36.1534 25.6306 35.9925 25.4344 35.8974 25.2048C35.8024 24.9753 35.7776 24.7227 35.8261 24.4791C35.8746 24.2354 35.9943 24.0116 36.1699 23.836C36.3456 23.6603 36.5695 23.5407 36.8131 23.4923C37.0568 23.4438 37.3094 23.4687 37.5389 23.5638C37.7684 23.6589 37.9646 23.8199 38.1026 24.0265C38.2406 24.233 38.3142 24.4759 38.3142 24.7243C38.3138 25.0575 38.1812 25.3769 37.9456 25.6124C37.7099 25.8479 37.3905 25.9803 37.0573 25.9805H37.0577Z" fill="#5A00EE"/>
<path d="M11.0227 19.394C10.8487 19.394 10.6817 19.4632 10.5587 19.5863C10.4356 19.7093 10.3665 19.8762 10.3665 20.0503V23.5554C10.3665 23.7295 10.4356 23.8964 10.5587 24.0195C10.6817 24.1425 10.8487 24.2117 11.0227 24.2117H28.7801C28.9541 24.2117 29.121 24.1425 29.2441 24.0195C29.3672 23.8964 29.4363 23.7295 29.4363 23.5554V20.0503C29.4363 19.8762 29.3672 19.7093 29.2441 19.5863C29.121 19.4632 28.9541 19.394 28.7801 19.394H11.0227ZM28.1238 22.8992H11.679V20.7065H28.1238V22.8992Z" fill="#5A00EE"/>
<path d="M45.9337 45.6543H2.55469C2.26471 45.6546 1.98672 45.77 1.78167 45.975C1.57663 46.1801 1.46128 46.4581 1.46094 46.748V48.4358C1.46128 48.7258 1.57663 49.0038 1.78167 49.2088C1.98672 49.4139 2.26471 49.5292 2.55469 49.5296H45.9337C46.2237 49.5292 46.5017 49.4139 46.7067 49.2089C46.9118 49.0038 47.0271 48.7258 47.0274 48.4358V46.748C47.0271 46.4581 46.9118 46.1801 46.7067 45.975C46.5017 45.77 46.2237 45.6546 45.9337 45.6543ZM45.7149 48.2171H2.77344V46.9668H45.7149V48.2171Z" fill="#5A00EE"/>
</g>
</svg>
