<svg width="20" height="20" viewBox="0 0 20 20" fill="none" xmlns="http://www.w3.org/2000/svg">
<path d="M4.53033 16.5303L16.5303 4.53033C16.8232 4.23744 16.8232 3.76256 16.5303 3.46967C16.2374 3.17678 15.7626 3.17678 15.4697 3.46967L3.46967 15.4697C3.17678 15.7626 3.17678 16.2374 3.46967 16.5303C3.76256 16.8232 4.23744 16.8232 4.53033 16.5303Z" fill="#626777"/>
<path d="M16.5303 7.46967C16.8232 7.76256 16.8232 8.23744 16.5303 8.53033L8.53033 16.5303C8.23744 16.8232 7.76256 16.8232 7.46967 16.5303C7.17678 16.2374 7.17678 15.7626 7.46967 15.4697L15.4697 7.46967C15.7626 7.17678 16.2374 7.17678 16.5303 7.46967Z" fill="#626777"/>
<path d="M12.5303 4.53033C12.8232 4.23744 12.8232 3.76256 12.5303 3.46967C12.2374 3.17678 11.7626 3.17678 11.4697 3.46967L3.46967 11.4697C3.17678 11.7626 3.17678 12.2374 3.46967 12.5303C3.76256 12.8232 4.23744 12.8232 4.53033 12.5303L12.5303 4.53033Z" fill="#626777"/>
<path d="M16.5303 11.4697C16.8232 11.7626 16.8232 12.2374 16.5303 12.5303L12.5303 16.5303C12.2374 16.8232 11.7626 16.8232 11.4697 16.5303C11.1768 16.2374 11.1768 15.7626 11.4697 15.4697L15.4697 11.4697C15.7626 11.1768 16.2374 11.1768 16.5303 11.4697Z" fill="#626777"/>
<path d="M8.53033 4.53033C8.82322 4.23744 8.82322 3.76256 8.53033 3.46967C8.23744 3.17678 7.76256 3.17678 7.46967 3.46967L3.46967 7.46967C3.17678 7.76256 3.17678 8.23744 3.46967 8.53033C3.76256 8.82322 4.23744 8.82322 4.53033 8.53033L8.53033 4.53033Z" fill="#626777"/>
<path fill-rule="evenodd" clip-rule="evenodd" d="M0 4C0 1.79086 1.79086 0 4 0H16C18.2091 0 20 1.79086 20 4V16C20 18.2091 18.2091 20 16 20H4C1.79086 20 0 18.2091 0 16V4ZM4 1.5H16C17.3807 1.5 18.5 2.61929 18.5 4V16C18.5 17.3807 17.3807 18.5 16 18.5H4C2.61929 18.5 1.5 17.3807 1.5 16V4C1.5 2.61929 2.61929 1.5 4 1.5Z" fill="#626777"/>
</svg>
