<svg width="72" height="61" viewBox="0 0 72 61" fill="none" xmlns="http://www.w3.org/2000/svg">
<path d="M42.6 0.75C35.3454 0.75 29.0994 5.00276 25.9835 11.1506C25.4819 11.0748 24.9697 11.0357 24.45 11.0357C19.8406 11.0357 15.9922 14.0788 14.5582 18.2205C6.6317 19.8188 0.75 27.03 0.75 35.5714C0.75 45.2532 8.32565 53.25 17.85 53.25H19.5C20.7426 53.25 21.75 52.2426 21.75 51C21.75 49.7574 20.7409 48.75 19.4982 48.75H17.85C10.9715 48.75 5.25 42.9316 5.25 35.5714C5.25 29.0192 9.79906 23.6701 15.6484 22.593C17.1749 22.3119 18.3277 21.1868 18.7663 19.825C19.5855 17.2818 21.8614 15.5357 24.45 15.5357C24.7896 15.5357 25.1209 15.5652 25.4423 15.6214C27.111 15.9134 29.0287 15.1744 29.8843 13.4129C32.2548 8.53254 37.0855 5.25 42.6 5.25C50.3898 5.25 56.85 11.8359 56.85 20.1429C56.85 21.5722 57.7084 22.8416 58.9889 23.3994C63.5146 25.3707 66.75 30.0519 66.75 35.5714C66.75 42.9316 61.0285 48.75 54.15 48.75H52.5C51.2574 48.75 50.25 49.7574 50.25 51C50.25 52.2426 51.2591 53.25 52.5018 53.25H54.15C63.6743 53.25 71.25 45.2532 71.25 35.5714C71.25 28.4956 67.2206 22.3477 61.3407 19.5275C61.0272 9.17815 52.8335 0.75 42.6 0.75Z" fill="#5A00EE"/>
<path d="M51.841 39.2731C52.7197 38.3944 52.7197 36.9698 51.841 36.0911L37.8107 22.0608C37.2249 21.475 36.2751 21.475 35.6893 22.0608L21.659 36.0911C20.7803 36.9698 20.7803 38.3944 21.659 39.2731C22.5377 40.1518 23.9623 40.1518 24.841 39.2731L34.5 29.6141V58.6821C34.5 59.9248 35.5074 60.9321 36.75 60.9321C37.9926 60.9321 39 59.9248 39 58.6821V29.6141L48.659 39.2731C49.5377 40.1518 50.9623 40.1518 51.841 39.2731Z" fill="#5A00EE"/>
</svg>
